# xmcd
#
# Track frame offsets: 
#        183
#        11883
#        23483
#        52825
#        66118
#        76948
#        82995
#        103435
#        115778
#        149770
#        159923
#        182308
#        207425
#        228923
#        256258
#        260380
#        283505
#        309853
#
# Disc length: 4641 seconds
#
# Revision: 2
# Processed by: cddbd v1.5.2PL0 Copyright (c) Steve Scherf et al.
# Submitted via: ExactAudioCopyFreeDBPlugin 1.0
#
DISCID=e4121f12
DTITLE=Howlin' Wolf - Howlin' Wolf:  The Complete Recordings, 1951-196
DTITLE=9 [Charly box set]
DYEAR=1993
DGENRE=Blues
TTITLE0=You Gonna Wreck My Life (alternate take)
TTITLE1=Somebody in My Home (alternate take)
TTITLE2=Nature (takes 1-6)
TTITLE3=Nature (alternate take)
TTITLE4=I Didn't Know
TTITLE5=I Better Go Now (take 1 only)
TTITLE6=Moaning For My Baby (takes 3-4)
TTITLE7=I'm Leavin' You (alternate take)
TTITLE8=I'm Leavin' You (takes 7-10)
TTITLE9=You Can't Put Me Out
TTITLE10=I've Been Abused (takes 5-7)
TTITLE11=Howlin' For My Darling (takes 1-7)
TTITLE12=Wolf In The Mood
TTITLE13=Mr. Airplane Man (takes 1-2)
TTITLE14=Rollin' And Tumblin'
TTITLE15=I'm The Wolf
TTITLE16=Ain't Goin' Down That Dirt Road
TTITLE17=Conversation with Howlin' Wolf
EXTD=
EXTT0=
EXTT1=
EXTT2=
EXTT3=
EXTT4=
EXTT5=
EXTT6=
EXTT7=
EXTT8=
EXTT9=
EXTT10=
EXTT11=
EXTT12=
EXTT13=
EXTT14=
EXTT15=
EXTT16=
EXTT17=
PLAYORDER=
